. 
  
http://www.torrentday.com/        :     The Hottest Private Tracker On The Net!!!


               www . TorrentDay . Com 
(((((((((((((= Enjoy No RAR releases =))))))))))))))))))))


...................................NFO:....................................

.*******************************************************************************
                    Tony.Rome.1967.DVDRip.AC3.X264-BARC0DE
*******************************************************************************

-------------------------------------------------------------------------------
                              General Information
-------------------------------------------------------------------------------
Type.................: Movie
Name.................: Tony Rome
Movie Information....: http://www.imdb.com/title/tt0062380/
Genre................: Crime | Drama | Mystery
-------------------------------------------------------------------------------
                                    PLOT
-------------------------------------------------------------------------------
Tony Rome, a tough Miami PI living on a houseboat, is hired by a local millionaire 
to find jewelry stolen from his daughter, and in the process has several encounters 
with local hoods as well as the Miami Beach PD.

-------------------------------------------------------------------------------
                                    CAST
-------------------------------------------------------------------------------
Frank Sinatra	... 	Tony Rome
Jill St. John	... 	Ann Archer
Richard Conte	... 	Lt. Dave Santini
Gena Rowlands	... 	Rita Kosterman
Simon Oakland	... 	Rudy Kosterman
Jeffrey Lynn	... 	Adam Boyd
Lloyd Bochner	... 	Vic Rood
Robert J. Wilke	... 	Ralph Turpin
Virginia Vincent	... 	Sally Bullock
Joan Shawlee	... 	Fat Candy
Richard Krisher	... 	Donald Pines

-------------------------------------------------------------------------------
                                    MEDiA iNFO
-------------------------------------------------------------------------------

General
Complete name                    : Tony.Rome.1967.DVDRip.AC3.X264-BARC0DE.mkv
Format                           : Matroska
File size                        : 1.47 GiB
Duration                         : 1h 45mn
Overall bit rate                 : 1 996 Kbps


Video
ID                               : 1
Format                           : AVC
Format/Info                      : Advanced Video Codec
Format profile                   : High@L3.0
Format settings, CABAC           : Yes
Format settings, ReFrames        : 3 frames
Muxing mode                      : Container profile=Unknown@3.0
Codec ID                         : V_MPEG4/ISO/AVC
Duration                         : 1h 45mn
Bit rate                         : 1 784 Kbps
Width                            : 720 pixels
Height                           : 304 pixels
Display aspect ratio             : 2.35:1
Frame rate                       : 25.000 fps
Color space                      : YUV
Chroma subsampling               : 4:2:0
Bit depth                        : 8 bits
Scan type                        : Progressive
Bits/(Pixel*Frame)               : 0.326
Stream size                      : 1.30 GiB (88%)
Writing library                  : x264 core 79


Audio
ID                               : 2
Format                           : AC-3
Format/Info                      : Audio Coding 3
Mode extension                   : CM (complete main)
Codec ID                         : A_AC3
Duration                         : 1h 45mn
Bit rate mode                    : Constant
Bit rate                         : 192 Kbps
Channel(s)                       : 2 channels
Channel positions                : Front: L R
Sampling rate                    : 48.0 KHz
Stream size                      : 145 MiB (10%)
Language                         : English

Text
ID                               : 3
Format                           : VobSub
Codec ID                         : S_VOBSUB
Codec ID/Info                    : The same subtitle format used on DVDs
Language                         : English